<?xml version="1.0" standalone="no"?>
<!DOCTYPE svg PUBLIC "-//W3C//DTD SVG 20010904//EN"
 "http://www.w3.org/TR/2001/REC-SVG-20010904/DTD/svg10.dtd">
<svg version="1.0" xmlns="http://www.w3.org/2000/svg"
 width="300.000000pt" height="315.000000pt" viewBox="0 0 300.000000 315.000000"
 preserveAspectRatio="xMidYMid meet">
<metadata>
Created by potrace 1.10, written by Peter Selinger 2001-2011
</metadata>
<g transform="translate(0.000000,315.000000) scale(0.100000,-0.100000)"
fill="#000000" stroke="none">
<path d="M1246 2988 c-23 -20 -29 -39 -46 -138 -11 -63 -27 -151 -35 -195 -26
-136 -85 -476 -85 -487 0 -5 -14 -8 -30 -8 -41 0 -63 -12 -497 -269 -111 -66
-150 -104 -133 -131 6 -9 2 -23 -11 -41 -16 -22 -19 -44 -19 -127 0 -93 2
-103 26 -131 14 -17 32 -31 40 -31 11 0 12 -4 4 -19 -14 -27 -14 -852 1 -884
6 -12 19 -28 29 -35 15 -9 287 -78 420 -106 36 -8 146 -35 210 -52 30 -8 105
-26 165 -40 61 -14 115 -27 120 -28 6 -2 28 -6 50 -11 22 -4 109 -25 194 -46
179 -45 201 -47 241 -17 l30 22 0 455 0 456 34 22 c81 53 548 442 542 452 -3
4 13 22 34 40 l40 33 -2 116 -2 117 -3 -113 -4 -112 -117 -93 c-64 -51 -195
-153 -290 -227 -95 -73 -170 -135 -168 -138 3 -2 36 18 73 45 85 62 94 68 87
51 -7 -18 -221 -187 -236 -188 -18 0 -6 29 17 44 14 9 25 23 25 31 0 8 5 15
10 15 6 0 10 48 10 124 0 123 0 124 26 141 63 41 563 427 562 433 -1 4 2 18 6
31 12 36 -28 67 -96 75 -29 4 -82 11 -118 16 -108 16 -132 19 -200 26 -36 3
-69 10 -74 15 -6 5 -2 47 8 106 61 331 84 462 92 511 3 20 8 40 10 44 9 14 16
119 10 142 -8 34 -30 44 -112 51 -38 3 -80 8 -94 10 -14 3 -56 7 -95 10 -67 6
-355 32 -440 40 -184 18 -180 18 -209 -7z m229 -33 c94 -8 217 -19 275 -25 58
-6 155 -15 215 -20 61 -6 128 -12 150 -15 22 -2 44 -4 49 -4 5 -1 6 -18 2 -38
-9 -58 -39 -225 -106 -593 -33 -184 -65 -359 -70 -389 -5 -30 -13 -58 -17 -62
-5 -4 -33 -3 -63 2 -30 5 -228 34 -439 64 -211 31 -387 58 -391 60 -4 3 0 44
10 92 9 49 22 117 28 153 51 287 113 638 123 700 14 83 22 100 47 94 9 -2 94
-11 187 -19z m-415 -827 c0 -2 -7 -38 -15 -81 -8 -43 -15 -81 -15 -83 0 -3 -5
-2 -10 1 -15 9 -102 -44 -97 -58 2 -7 77 -23 188 -39 101 -14 249 -36 329 -48
80 -12 217 -32 305 -45 88 -13 178 -26 200 -30 37 -6 46 -2 128 55 48 34 87
65 87 69 0 5 -27 12 -61 15 -47 6 -59 10 -55 22 3 8 10 42 16 77 l11 62 187
-27 c103 -15 203 -27 223 -28 19 0 43 -6 53 -13 16 -12 -13 -37 -281 -238
l-298 -224 -50 1 c-27 0 -156 20 -285 42 -129 23 -287 51 -350 62 -258 45
-405 70 -610 106 -118 20 -217 38 -219 41 -10 8 31 34 302 194 238 141 317
182 317 167z m988 -298 c-28 -22 -32 -19 -24 15 6 22 9 24 27 15 20 -11 20
-11 -3 -30z m-1513 -135 c267 -46 1330 -233 1363 -240 21 -5 22 -9 22 -130 0
-68 -4 -126 -9 -129 -5 -4 -31 -2 -58 4 -78 16 -245 49 -438 85 -788 148 -967
184 -977 193 -11 11 -14 232 -3 232 6 0 51 -7 100 -15z m1681 -321 c-27 -24
-51 -42 -55 -38 -3 3 5 14 19 25 14 11 36 28 48 39 46 39 36 19 -12 -26z
m-1562 6 c89 -17 215 -42 281 -55 115 -23 807 -158 890 -173 l40 -8 3 -473 2
-473 -37 7 c-34 6 -503 117 -893 210 -80 19 -210 50 -288 69 -79 19 -148 38
-153 43 -9 9 -18 883 -10 883 3 0 77 -14 165 -30z"/>
<path d="M1765 2534 c-77 -86 -144 -163 -149 -171 -6 -12 -17 -1 -47 47 -28
44 -44 60 -55 56 -9 -3 -18 -6 -20 -6 -16 0 3 -53 41 -111 32 -50 51 -69 63
-67 10 2 62 53 117 113 55 61 126 137 157 170 62 64 80 101 57 116 -8 5 -16 9
-19 9 -3 0 -68 -70 -145 -156z"/>
<path d="M1416 2659 c-3 -8 -14 -70 -26 -139 -12 -69 -30 -170 -40 -225 -10
-55 -15 -103 -11 -107 6 -6 354 -55 435 -61 35 -2 31 -14 71 217 14 82 23 151
20 154 -2 3 -13 -2 -23 -12 -20 -17 -29 -54 -58 -219 -14 -81 -19 -97 -33 -93
-9 3 -92 15 -186 26 -173 22 -189 25 -180 39 2 5 19 91 36 192 17 101 32 185
34 187 1 1 71 -5 154 -14 l152 -17 21 21 c27 27 27 27 -137 41 -71 7 -151 15
-177 18 -36 4 -49 2 -52 -8z"/>
<path d="M2022 1745 c8 -9 114 -35 142 -35 43 0 -16 26 -63 29 -25 1 -55 4
-66 8 -11 3 -17 2 -13 -2z"/>
<path d="M550 1350 c264 -64 1285 -290 1294 -287 6 3 -2 8 -19 12 -16 4 -34
10 -40 13 -5 4 -16 7 -25 8 -27 3 -161 32 -365 79 -110 25 -240 54 -290 65
-162 34 -409 88 -475 104 -36 9 -76 15 -90 15 -20 -1 -18 -3 10 -9z"/>
<path d="M2510 1169 l0 -425 -285 -263 c-157 -145 -285 -266 -285 -268 0 -14
190 157 476 430 39 37 78 73 87 80 16 11 17 51 17 436 0 233 -2 426 -5 429 -3
3 -5 -186 -5 -419z"/>
</g>
</svg>
